<svg width="20" height="21" viewBox="0 0 20 21" fill="none" xmlns="http://www.w3.org/2000/svg">
<path d="M5.48131 13.4013C4.30234 14.1033 1.21114 15.5367 3.09389 17.3305C4.01359 18.2066 5.03791 18.8333 6.32573 18.8333H13.6743C14.9621 18.8333 15.9864 18.2066 16.9061 17.3305C18.7888 15.5367 15.6977 14.1033 14.5187 13.4013C11.754 11.7551 8.24599 11.7551 5.48131 13.4013Z" stroke="#374144" stroke-width="1.5" stroke-linecap="round" stroke-linejoin="round"/>
<path d="M13.75 5.91663C13.75 7.98769 12.0711 9.66663 10 9.66663C7.92893 9.66663 6.25 7.98769 6.25 5.91663C6.25 3.84556 7.92893 2.16663 10 2.16663C12.0711 2.16663 13.75 3.84556 13.75 5.91663Z" stroke="#374144" stroke-width="1.5"/>
</svg>
