<svg width="20" height="21" viewBox="0 0 20 21" fill="none" xmlns="http://www.w3.org/2000/svg">
<path d="M2.10825 12.495C1.93104 13.6226 2.72331 14.4052 3.69336 14.7952C7.41232 16.2905 12.5876 16.2905 16.3066 14.7952C17.2766 14.4052 18.0689 13.6226 17.8917 12.495C17.7828 11.8021 17.2443 11.2251 16.8453 10.6617C16.3227 9.9146 16.2708 9.09977 16.2707 8.23286C16.2707 4.8826 13.4632 2.16669 9.99998 2.16669C6.53676 2.16669 3.72926 4.8826 3.72926 8.23286C3.72917 9.09977 3.67725 9.9146 3.15466 10.6617C2.75568 11.2251 2.21716 11.8021 2.10825 12.495Z" stroke="#374144" stroke-width="1.5" stroke-linecap="round" stroke-linejoin="round"/>
<path d="M7.5 18C8.16344 18.5183 9.03958 18.8333 10 18.8333C10.9604 18.8333 11.8366 18.5183 12.5 18" stroke="#374144" stroke-width="1.5" stroke-linecap="round" stroke-linejoin="round"/>
</svg>
