<svg width="20" height="21" viewBox="0 0 20 21" fill="none" xmlns="http://www.w3.org/2000/svg">
<path d="M2.47235 8.83496V13.0016C2.47235 15.3586 2.47235 16.5371 3.20458 17.2694C3.93682 18.0016 5.11533 18.0016 7.47235 18.0016H10.389M17.4724 8.83496V10.085" stroke="#374144" stroke-width="1.5" stroke-linecap="round"/>
<path d="M5.80566 14.6683H9.139" stroke="#374144" stroke-width="1.5" stroke-linecap="round"/>
<path d="M8.41985 7.1027C8.18487 7.9524 7.33025 9.41817 5.70649 9.63058C4.27279 9.81808 3.1854 9.19158 2.90765 8.92958C2.60142 8.71713 1.90348 8.03737 1.73257 7.61252C1.56164 7.18767 1.76105 6.26717 1.90348 5.89188L2.47288 4.24122C2.61188 3.82662 2.93727 2.84601 3.27086 2.51433C3.60446 2.18265 4.27986 2.16822 4.55785 2.16822H10.3958C11.8984 2.18947 15.1841 2.15481 15.8336 2.16822C16.4831 2.18164 16.8734 2.72676 16.9874 2.96042C17.9564 5.31063 18.3334 6.65661 18.3334 7.23016C18.2069 7.842 17.6834 8.99567 15.8336 9.50308C13.9111 10.0305 12.8212 9.00475 12.4793 8.61092M7.62937 8.61092C7.89999 8.94375 8.74893 9.61358 9.97952 9.63058C11.2102 9.64758 12.2728 8.78794 12.6502 8.35601C12.757 8.22855 12.9878 7.85044 13.2271 7.1027" stroke="#374144" stroke-width="1.5" stroke-linecap="round" stroke-linejoin="round"/>
<path d="M12.5 13.8335L13.2575 14.8107C13.6387 13.3881 15.1009 12.5439 16.5235 12.925C17.2517 13.1201 17.8283 13.5985 18.1667 14.2099M19.1667 17.1668L18.4091 16.191C18.0279 17.6136 16.5657 18.4578 15.1431 18.0766C14.4319 17.8861 13.8651 17.4252 13.5239 16.8341" stroke="#374144" stroke-width="1.2" stroke-linecap="round" stroke-linejoin="round"/>
</svg>
