<svg width="20" height="21" viewBox="0 0 20 21" fill="none" xmlns="http://www.w3.org/2000/svg">
<path d="M7.5 18.8333L7.5016 15.498C7.50197 14.7225 7.50215 14.3347 7.62885 14.0289C7.79812 13.6202 8.12288 13.2956 8.53158 13.1266C8.83758 13 9.22533 13 10.0008 13C10.7766 13 11.1645 13 11.4706 13.1267C11.8794 13.2958 12.2042 13.6206 12.3733 14.0294C12.5 14.3355 12.5 14.7234 12.5 15.4992V18.8333" stroke="#374144" stroke-width="1.5"/>
<path d="M5.90707 4.46871L5.07372 5.11917C3.80984 6.1057 3.1779 6.59896 2.83895 7.29446C2.5 7.98995 2.5 8.79339 2.5 10.4003V12.1429C2.5 15.2969 2.5 16.8738 3.47631 17.8536C4.45262 18.8334 6.02397 18.8334 9.16667 18.8334H10.8333C13.976 18.8334 15.5474 18.8334 16.5237 17.8536C17.5 16.8738 17.5 15.2969 17.5 12.1429V10.4003C17.5 8.79339 17.5 7.98995 17.1611 7.29446C16.8221 6.59896 16.1902 6.1057 14.9263 5.11917L14.0929 4.46871C12.1268 2.93403 11.1437 2.16669 10 2.16669C8.85633 2.16669 7.87322 2.93403 5.90707 4.46871Z" stroke="#374144" stroke-width="1.5" stroke-linejoin="round"/>
</svg>
