<svg width="20" height="21" viewBox="0 0 20 21" fill="none" xmlns="http://www.w3.org/2000/svg">
<path d="M12.9383 13.8144H15.6377C16.7037 13.7964 18.3322 14.3575 18.3322 16.381C18.3322 18.4806 16.3226 18.8326 15.6377 18.8326C14.9528 18.8326 8.48469 18.8326 6.62026 18.8326C4.53194 18.8326 1.66668 18.4096 1.66669 14.8068V7.16907H18.3322V10.9332M12.9383 13.8144C12.9428 13.6361 13.0186 13.4594 13.1659 13.331L14.5841 12.1474M12.9383 13.8144C12.9335 14.0046 13.01 14.1965 13.1678 14.3331L14.5841 15.4861" stroke="#374144" stroke-width="1.5" stroke-linecap="round" stroke-linejoin="round"/>
<path d="M1.66992 7.15937L2.43786 5.24194C3.06101 3.7518 3.37259 3.00673 4.00413 2.58723C4.63568 2.16772 5.44578 2.16772 7.06597 2.16772H12.9154C14.5356 2.16772 15.3457 2.16772 15.9772 2.58723C16.6088 3.00673 16.9203 3.7518 17.5435 5.24194L18.3317 7.16234" stroke="#374144" stroke-width="1.5" stroke-linecap="round"/>
<path d="M9.96906 7.16772V2.16772" stroke="#374144" stroke-width="1.5" stroke-linecap="round"/>
<path d="M8.30243 10.501H11.6358" stroke="#374144" stroke-width="1.5" stroke-linecap="round"/>
</svg>
