<svg width="34" height="34" viewBox="0 0 34 34" fill="none" xmlns="http://www.w3.org/2000/svg">
<path d="M2.54995 11.8823C2.70823 9.06422 3.18175 7.30722 4.59827 6.05734C6.0148 4.80747 8.00607 4.38966 11.1999 4.25M31.4501 11.8823C31.2917 9.06422 30.8182 7.30722 29.4018 6.05734C27.9853 4.80747 25.9939 4.38966 22.8001 4.25M22.8001 29.7501C25.9939 29.6104 27.9853 29.1926 29.4018 27.9428C30.8182 26.6929 31.2917 24.9358 31.4501 22.1178M11.1999 29.7501C8.00607 29.6104 6.0148 29.1926 4.59827 27.9428C3.18175 26.6929 2.70823 24.9358 2.54995 22.1178" stroke="white" stroke-width="2.12501" stroke-linecap="round" stroke-linejoin="round"/>
<path d="M8.50001 11.3333H25.5001" stroke="white" stroke-width="2.12501" stroke-linecap="round"/>
<path d="M8.50001 17H25.5001" stroke="white" stroke-width="2.12501" stroke-linecap="round"/>
<path d="M8.50001 22.6667H18.4167" stroke="white" stroke-width="2.12501" stroke-linecap="round"/>
</svg>
