<svg width="20" height="21" viewBox="0 0 20 21" fill="none" xmlns="http://www.w3.org/2000/svg">
<path d="M14.1666 2.16669V3.83335M9.99998 2.16669V3.83335M5.83331 2.16669V3.83335" stroke="#374144" stroke-width="1.5" stroke-linecap="round" stroke-linejoin="round"/>
<path d="M2.91669 13.8333V8C2.91669 5.64297 2.91669 4.46447 3.64892 3.73223C4.38115 3 5.55966 3 7.91669 3H12.0834C14.4404 3 15.6189 3 16.3511 3.73223C17.0834 4.46447 17.0834 5.64297 17.0834 8V10.5C17.0834 14.4283 17.0834 16.3926 15.8629 17.6129C14.6426 18.8333 12.6784 18.8333 8.75002 18.8333H7.91669C5.55966 18.8333 4.38115 18.8333 3.64892 18.1011C2.91669 17.3688 2.91669 16.1903 2.91669 13.8333Z" stroke="#374144" stroke-width="1.5"/>
<path d="M6.66669 13H10M6.66669 8.83331H13.3334" stroke="#374144" stroke-width="1.5" stroke-linecap="round"/>
<path d="M17.0833 12.5833C17.0833 13.7339 16.1506 14.6666 15 14.6666C14.5839 14.6666 14.0933 14.5937 13.6887 14.7021C13.3292 14.7985 13.0485 15.0792 12.9521 15.4387C12.8437 15.8433 12.9166 16.3339 12.9166 16.75C12.9166 17.9006 11.9839 18.8333 10.8333 18.8333" stroke="#374144" stroke-width="1.5" stroke-linecap="round" stroke-linejoin="round"/>
</svg>
