<svg width="20" height="21" viewBox="0 0 20 21" fill="none" xmlns="http://www.w3.org/2000/svg">
<path d="M17.5 9.81956V7.40032C17.5 6.03366 17.5 5.35032 17.1632 4.90449C16.8265 4.45866 16.0651 4.24221 14.5423 3.80933C13.5018 3.51358 12.5847 3.15727 11.8519 2.83199C10.8528 2.3885 10.3533 2.16675 10 2.16675C9.64667 2.16675 9.14717 2.3885 8.14809 2.83199C7.41532 3.15727 6.4982 3.51358 5.45778 3.80933C3.93494 4.24221 3.17352 4.45866 2.83676 4.90449C2.5 5.35032 2.5 6.03366 2.5 7.40032V9.81956C2.5 14.5071 6.71897 17.3196 8.82833 18.4329C9.33425 18.6999 9.58717 18.8334 10 18.8334C10.4128 18.8334 10.6657 18.6999 11.1717 18.4329C13.281 17.3196 17.5 14.5071 17.5 9.81956Z" stroke="#374144" stroke-width="1.5" stroke-linecap="round"/>
<path d="M10 13.8334C10.1164 13.8334 10.2245 13.7804 10.4408 13.6744L12.1794 12.8224C12.9487 12.4454 13.3334 12.2569 13.3334 11.9584V8.20837M10 13.8334C9.88369 13.8334 9.77552 13.7804 9.55927 13.6744L7.82067 12.8224C7.05135 12.4454 6.66669 12.2569 6.66669 11.9584V8.20837M10 13.8334V10.0834M13.3334 8.20837C13.3334 7.90987 12.9487 7.72136 12.1794 7.34436L10.4408 6.49237C10.2245 6.38637 10.1164 6.33337 10 6.33337C9.88369 6.33337 9.77552 6.38637 9.55927 6.49237L7.82067 7.34436C7.05135 7.72136 6.66669 7.90987 6.66669 8.20837M13.3334 8.20837C13.3334 8.50689 12.9487 8.69539 12.1794 9.07236L10.4408 9.92436C10.2245 10.0304 10.1164 10.0834 10 10.0834M6.66669 8.20837C6.66669 8.50689 7.05135 8.69539 7.82067 9.07236L9.55927 9.92436C9.77552 10.0304 9.88369 10.0834 10 10.0834" stroke="#374144" stroke-width="1.5" stroke-linejoin="round"/>
</svg>
