<svg width="20" height="21" viewBox="0 0 20 21" fill="none" xmlns="http://www.w3.org/2000/svg">
<path d="M12.9166 10.5C12.9166 12.1109 11.6108 13.4167 9.99998 13.4167C8.38915 13.4167 7.08331 12.1109 7.08331 10.5C7.08331 8.88921 8.38915 7.58337 9.99998 7.58337C11.6108 7.58337 12.9166 8.88921 12.9166 10.5Z" stroke="#374144" stroke-width="1.5"/>
<path d="M17.5092 12.2471C17.9441 12.1298 18.1616 12.0712 18.2474 11.959C18.3334 11.8469 18.3334 11.6665 18.3334 11.3058V9.69435C18.3334 9.3336 18.3334 9.15318 18.2474 9.0411C18.1615 8.92893 17.9441 8.87026 17.5092 8.753C15.8839 8.31467 14.8666 6.61544 15.2861 5.00074C15.4014 4.55667 15.4591 4.33465 15.404 4.20442C15.3489 4.0742 15.1909 3.98446 14.8748 3.80498L13.4375 2.98896C13.1274 2.81284 12.9723 2.72478 12.8331 2.74353C12.6939 2.76228 12.5369 2.91896 12.2227 3.23229C11.0067 4.44541 8.99469 4.44536 7.77864 3.23221C7.46455 2.91887 7.3075 2.76221 7.16829 2.74345C7.02909 2.7247 6.874 2.81276 6.5638 2.98887L5.12655 3.80491C4.81046 3.98437 4.65241 4.07411 4.59734 4.20431C4.54225 4.33451 4.59991 4.55657 4.71523 5.00068C5.1345 6.61543 4.11645 8.31471 2.49087 8.75301C2.05595 8.87026 1.8385 8.92893 1.75259 9.04101C1.66669 9.15318 1.66669 9.3336 1.66669 9.69435V11.3058C1.66669 11.6665 1.66669 11.8469 1.75259 11.959C1.83848 12.0712 2.05595 12.1298 2.49087 12.2471C4.11619 12.6854 5.13342 14.3847 4.71395 15.9993C4.5986 16.4434 4.54091 16.6654 4.59599 16.7957C4.65107 16.9259 4.80912 17.0157 5.12523 17.1951L6.56248 18.0112C6.8727 18.1873 7.0278 18.2753 7.16702 18.2566C7.30624 18.2378 7.46325 18.0811 7.77728 17.7678C8.99394 16.5537 11.0074 16.5536 12.2241 17.7677C12.5381 18.0811 12.6951 18.2378 12.8344 18.2565C12.9735 18.2753 13.1287 18.1872 13.4389 18.0111L14.8761 17.195C15.1923 17.0156 15.3504 16.9258 15.4054 16.7956C15.4604 16.6653 15.4028 16.4433 15.2874 15.9993C14.8677 14.3847 15.8841 12.6855 17.5092 12.2471Z" stroke="#374144" stroke-width="1.5" stroke-linecap="round"/>
</svg>
